<?xml version="1.0" standalone="no"?>
<svg viewBox="0 0 200 200" xmlns="http://www.w3.org/2000/svg">
  <path fill="#E3DAC9" d="M51.2,-72.7C64.3,-60.9,71.5,-43.2,76.3,-25.5C81.1,-7.7,83.6,10.1,78.7,25.6C73.7,41.2,61.4,54.4,47.1,64.9C32.7,75.5,16.4,83.4,1.2,81.7C-13.9,80,-27.8,68.7,-41.5,57.9C-55.2,47.2,-68.8,37,-74.7,23.2C-80.6,9.5,-78.9,-7.8,-74.1,-24.5C-69.3,-41.2,-61.3,-57.3,-48.4,-69.1C-35.5,-80.9,-17.8,-88.5,0.6,-89.4C19,-90.2,38.1,-84.4,51.2,-72.7Z" transform="translate(100 100)" />
</svg>
